<svg width="157" height="70" viewBox="0 0 157 70" fill="none" xmlns="http://www.w3.org/2000/svg">
<rect x="43" width="70" height="70" fill="#242424"/>
<path d="M1.12 35V34.68L2.72 33.88L3.14 22.92L1.42 22.12V21.8H5.4L9.88 32.14L14.34 21.8H18.16V22.12L16.46 22.86L16.8 33.88L18.24 34.68V35H13.3V34.68L14.8 33.9L14.6 24.12L9.88 35.1H8.92L4.24 24.24L3.98 33.9L5.64 34.68V35H1.12ZM22.5355 35V34.68L24.1755 33.88V22.92L22.5355 22.12V21.8H27.8755V22.12L26.2555 22.92V33.88L27.8755 34.68V35H22.5355ZM32.2461 35V34.68L33.8661 33.88V22.92L32.2461 22.12V21.8H37.7861V22.12L35.9661 22.92V33.9H40.7061L42.1261 30.46H42.4461V35H32.2461ZM46.7652 35V34.68L48.4052 33.88V22.92L46.7652 22.12V21.8H52.1052V22.12L50.4852 22.92V33.88L52.1052 34.68V35H46.7652ZM62.7758 35V34.68L64.0358 34.02L69.1758 21.7H70.2758L75.3558 33.96L76.6958 34.68V35H71.4158V34.68L73.1758 33.98L71.6958 30.38H66.8758L65.4158 34L67.0958 34.68V35H62.7758ZM67.3358 29.28H71.2558L69.2958 24.46L67.3358 29.28ZM80.313 35V34.68L81.933 33.88V22.96L80.333 22.12V21.8H83.473L91.133 31.22V22.9L89.073 22.12V21.8H94.133V22.12L92.533 22.9V35.1H91.673L83.333 24.86V33.9L85.393 34.68V35H80.313ZM98.1719 35V34.68L99.7919 33.88V22.92L98.1719 22.12V21.8H104.252C105.745 21.8 107.019 22.06 108.072 22.58C109.125 23.1 109.925 23.8133 110.472 24.72C111.032 25.6267 111.312 26.6533 111.312 27.8C111.312 28.84 111.132 29.8 110.772 30.68C110.412 31.56 109.905 32.32 109.252 32.96C108.612 33.6 107.852 34.1 106.972 34.46C106.105 34.82 105.152 35 104.112 35H98.1719ZM103.712 22.9H101.892V33.9H104.012C105.079 33.9 105.992 33.68 106.752 33.24C107.512 32.7867 108.099 32.1533 108.512 31.34C108.925 30.5133 109.132 29.54 109.132 28.42C109.132 27.3133 108.919 26.3467 108.492 25.52C108.079 24.68 107.465 24.0333 106.652 23.58C105.852 23.1267 104.872 22.9 103.712 22.9ZM115.777 35V34.68L117.417 33.88V22.92L115.777 22.12V21.8H121.117V22.12L119.497 22.92V33.88L121.117 34.68V35H115.777ZM125.407 35V34.68L127.027 33.88V22.96L125.427 22.12V21.8H128.567L136.227 31.22V22.9L134.167 22.12V21.8H139.227V22.12L137.627 22.9V35.1H136.767L128.427 24.86V33.9L130.487 34.68V35H125.407ZM142.256 35V34.68L143.516 34.02L148.656 21.7H149.756L154.836 33.96L156.176 34.68V35H150.896V34.68L152.656 33.98L151.176 30.38H146.356L144.896 34L146.576 34.68V35H142.256ZM146.816 29.28H150.736L148.776 24.46L146.816 29.28Z" fill="#F9F9F9"/>
<path d="M62.276 47.08V55H61.088V50.416L61.184 48.232H61.172L58.76 55H57.692L55.28 48.232H55.268L55.364 50.416V55H54.176V47.08H56.084L57.68 51.664L58.232 53.548H58.256L58.82 51.664L60.404 47.08H62.276ZM67.8585 51.148C67.8585 50.748 67.7465 50.44 67.5225 50.224C67.3065 50 67.0065 49.888 66.6225 49.888C66.2625 49.888 65.9545 49.972 65.6985 50.14C65.4425 50.308 65.2545 50.58 65.1345 50.956L64.0545 50.5C64.2065 50.012 64.5025 49.62 64.9425 49.324C65.3905 49.028 65.9665 48.88 66.6705 48.88C67.1505 48.88 67.5745 48.96 67.9425 49.12C68.3105 49.272 68.5985 49.504 68.8065 49.816C69.0225 50.128 69.1305 50.528 69.1305 51.016V53.692C69.1305 53.988 69.2785 54.136 69.5745 54.136C69.7185 54.136 69.8585 54.116 69.9945 54.076L69.9225 54.964C69.7385 55.052 69.5065 55.096 69.2265 55.096C68.9705 55.096 68.7385 55.052 68.5305 54.964C68.3305 54.868 68.1705 54.728 68.0505 54.544C67.9385 54.352 67.8825 54.116 67.8825 53.836V53.752L68.1465 53.74C68.0745 54.052 67.9265 54.312 67.7025 54.52C67.4785 54.72 67.2185 54.872 66.9225 54.976C66.6265 55.072 66.3265 55.12 66.0225 55.12C65.6465 55.12 65.3065 55.06 65.0025 54.94C64.7065 54.82 64.4705 54.64 64.2945 54.4C64.1265 54.152 64.0425 53.848 64.0425 53.488C64.0425 53.04 64.1865 52.672 64.4745 52.384C64.7705 52.096 65.1865 51.9 65.7225 51.796L68.0505 51.34L68.0385 52.24L66.3465 52.588C66.0105 52.652 65.7585 52.744 65.5905 52.864C65.4225 52.984 65.3385 53.16 65.3385 53.392C65.3385 53.616 65.4225 53.796 65.5905 53.932C65.7665 54.06 65.9985 54.124 66.2865 54.124C66.4865 54.124 66.6785 54.1 66.8625 54.052C67.0545 54.004 67.2265 53.928 67.3785 53.824C67.5305 53.712 67.6465 53.572 67.7265 53.404C67.8145 53.228 67.8585 53.02 67.8585 52.78V51.148ZM76.8983 49L74.2223 51.736L73.9463 51.928L72.0623 53.884L72.0503 52.42L75.3743 49H76.8983ZM72.5183 46.3V55H71.2343V46.3H72.5183ZM74.3783 51.016L77.0423 55H75.5543L73.4183 51.748L74.3783 51.016ZM80.6243 55.12C80.0243 55.12 79.4963 54.996 79.0403 54.748C78.5843 54.5 78.2283 54.144 77.9723 53.68C77.7243 53.208 77.6003 52.648 77.6003 52C77.6003 51.352 77.7243 50.796 77.9723 50.332C78.2283 49.86 78.5803 49.5 79.0283 49.252C79.4763 49.004 79.9843 48.88 80.5523 48.88C81.1363 48.88 81.6323 49 82.0403 49.24C82.4483 49.48 82.7603 49.808 82.9763 50.224C83.1923 50.64 83.3003 51.112 83.3003 51.64C83.3003 51.784 83.2963 51.92 83.2883 52.048C83.2803 52.176 83.2683 52.288 83.2523 52.384H78.4283V51.4H82.6883L82.0523 51.592C82.0523 51.048 81.9163 50.632 81.6443 50.344C81.3723 50.048 81.0003 49.9 80.5283 49.9C80.1843 49.9 79.8843 49.98 79.6283 50.14C79.3723 50.3 79.1763 50.54 79.0403 50.86C78.9043 51.172 78.8363 51.556 78.8363 52.012C78.8363 52.46 78.9083 52.84 79.0523 53.152C79.1963 53.464 79.4003 53.7 79.6643 53.86C79.9283 54.02 80.2403 54.1 80.6003 54.1C81.0003 54.1 81.3243 54.024 81.5723 53.872C81.8203 53.72 82.0163 53.508 82.1603 53.236L83.1803 53.716C83.0363 54.004 82.8403 54.256 82.5923 54.472C82.3523 54.68 82.0643 54.84 81.7283 54.952C81.3923 55.064 81.0243 55.12 80.6243 55.12ZM90.9601 55.12C90.5681 55.12 90.2041 55.048 89.8681 54.904C89.5401 54.76 89.2761 54.528 89.0761 54.208C88.8761 53.888 88.7761 53.472 88.7761 52.96V49H90.0601V52.636C90.0601 53.18 90.1761 53.556 90.4081 53.764C90.6401 53.964 90.9641 54.064 91.3801 54.064C91.5801 54.064 91.7721 54.032 91.9561 53.968C92.1481 53.896 92.3201 53.788 92.4721 53.644C92.6241 53.492 92.7401 53.3 92.8201 53.068C92.9081 52.836 92.9521 52.564 92.9521 52.252V49H94.2361V55H93.1081L93.0481 54.028C92.8401 54.404 92.5601 54.68 92.2081 54.856C91.8561 55.032 91.4401 55.12 90.9601 55.12ZM96.2421 57.52V49H97.3821L97.4781 50.68L97.3101 50.476C97.4061 50.164 97.5541 49.888 97.7541 49.648C97.9541 49.408 98.2021 49.22 98.4981 49.084C98.8021 48.948 99.1341 48.88 99.4941 48.88C99.9821 48.88 100.426 49.004 100.826 49.252C101.226 49.5 101.542 49.856 101.774 50.32C102.006 50.776 102.122 51.332 102.122 51.988C102.122 52.644 102.002 53.208 101.762 53.68C101.53 54.144 101.21 54.5 100.802 54.748C100.402 54.996 99.9541 55.12 99.4581 55.12C98.9461 55.12 98.5101 54.988 98.1501 54.724C97.7901 54.452 97.5341 54.108 97.3821 53.692L97.5261 53.488V57.52H96.2421ZM99.1821 54.076C99.7021 54.076 100.106 53.892 100.394 53.524C100.69 53.156 100.838 52.648 100.838 52C100.838 51.352 100.694 50.844 100.406 50.476C100.118 50.1 99.7181 49.912 99.2061 49.912C98.8701 49.912 98.5741 50 98.3181 50.176C98.0701 50.344 97.8741 50.584 97.7301 50.896C97.5941 51.2 97.5261 51.568 97.5261 52C97.5261 52.424 97.5941 52.792 97.7301 53.104C97.8661 53.416 98.0581 53.656 98.3061 53.824C98.5541 53.992 98.8461 54.076 99.1821 54.076Z" fill="#F9F9F9"/>
</svg>
